<svg width="125" height="125" viewBox="0 0 125 125" fill="none" xmlns="http://www.w3.org/2000/svg">
<path d="M62.4308 19C39.0589 19 19.9899 37.4549 19.0049 60.583C18.9376 62.1692 20.1488 62.2575 20.1488 62.2575H27.524C28.9576 62.2575 29.2088 61.4395 29.2427 60.7067C30.0547 43.1691 44.6696 29.2342 62.4308 29.2342C71.9113 29.2342 80.4624 33.208 86.5168 39.5784L81.3416 44.5828C80.4414 45.6667 80.4578 46.9827 81.7871 47.3544L103.533 51.7319C105.394 52.1965 107.606 50.7863 106.847 47.8906L101.71 27.8676C101.579 27.1096 100.309 25.9297 99.1222 26.776L93.4822 32.0581C85.5926 24.0012 74.596 19 62.4308 19ZM98.476 63.7424C97.0425 63.7424 96.7912 64.5604 96.7573 65.2932C95.9453 82.8309 81.3304 96.7657 63.5692 96.7657C54.0887 96.7657 45.5376 92.7946 39.4832 86.4243L44.6584 81.4172C45.5586 80.3333 45.5422 79.0173 44.2129 78.6456L22.467 74.2681C20.6059 73.8035 18.3938 75.2137 19.1534 78.1094L24.2902 98.1324C24.4206 98.8904 25.6914 100.07 26.8778 99.224L32.5178 93.9419C40.4074 101.999 51.404 107 63.5692 107C86.9411 107 106.01 88.5451 106.995 65.417C107.062 63.8308 105.851 63.7424 105.851 63.7424H98.476V63.7424Z" fill="#E5E9F0"/>
</svg>
