<svg width="35" height="35" viewBox="0 0 35 35" fill="none" xmlns="http://www.w3.org/2000/svg">
<path d="M12.0312 12.0312V9.29688C12.0312 8.57167 12.3193 7.87617 12.8321 7.36338C13.3449 6.85059 14.0404 6.5625 14.7656 6.5625H28.9844C29.7096 6.5625 30.4051 6.85059 30.9179 7.36338C31.4307 7.87617 31.7188 8.57167 31.7188 9.29688V25.7031C31.7188 26.4283 31.4307 27.1238 30.9179 27.6366C30.4051 28.1494 29.7096 28.4375 28.9844 28.4375H14.7656C14.0404 28.4375 13.3449 28.1494 12.8321 27.6366C12.3193 27.1238 12.0312 26.4283 12.0312 25.7031V22.9688" stroke="#D8DEE9" stroke-width="2.1875" stroke-linecap="round" stroke-linejoin="round"/>
<path d="M18.5938 22.9688L24.0625 17.5L18.5938 12.0312" stroke="#D8DEE9" stroke-width="2.1875" stroke-linecap="round" stroke-linejoin="round"/>
<path d="M3.28125 17.5H22.9688" stroke="#D8DEE9" stroke-width="2.1875" stroke-linecap="round" stroke-linejoin="round"/>
</svg>
